<mxfile host="app.diagrams.net" modified="2020-08-28T15:03:15.550Z" agent="5.0 (Windows)" etag="H3cuK35bwkbEowg-0uEp" version="13.6.5" type="github">
  <diagram id="Z6kgNmkecvj5q3RsAmFG" name="Page-1">
    <mxGraphModel dx="1038" dy="547" grid="1" gridSize="10" guides="1" tooltips="1" connect="1" arrows="1" fold="1" page="1" pageScale="1" pageWidth="1169" pageHeight="827" math="0" shadow="0">
      <root>
        <mxCell id="0" />
        <mxCell id="1" parent="0" />
        <mxCell id="d2uhO5G5-GendlZ6O_62-1" value="Mail Dispatch" style="swimlane;html=1;childLayout=stackLayout;resizeParent=1;resizeParentMax=0;horizontal=1;startSize=20;horizontalStack=0;" vertex="1" parent="1">
          <mxGeometry x="60" y="30" width="900" height="450" as="geometry" />
        </mxCell>
        <mxCell id="d2uhO5G5-GendlZ6O_62-2" value="User" style="swimlane;html=1;startSize=20;horizontal=0;" vertex="1" parent="d2uhO5G5-GendlZ6O_62-1">
          <mxGeometry y="20" width="900" height="190" as="geometry" />
        </mxCell>
        <mxCell id="d2uhO5G5-GendlZ6O_62-5" value="Start" style="rounded=1;whiteSpace=wrap;html=1;" vertex="1" parent="d2uhO5G5-GendlZ6O_62-2">
          <mxGeometry x="120" y="30" width="100" height="40" as="geometry" />
        </mxCell>
        <mxCell id="d2uhO5G5-GendlZ6O_62-6" value="Deliver mail to admin officer" style="rounded=0;whiteSpace=wrap;html=1;" vertex="1" parent="d2uhO5G5-GendlZ6O_62-2">
          <mxGeometry x="110" y="110" width="120" height="60" as="geometry" />
        </mxCell>
        <mxCell id="d2uhO5G5-GendlZ6O_62-8" value="" style="edgeStyle=orthogonalEdgeStyle;rounded=0;orthogonalLoop=1;jettySize=auto;html=1;entryX=0.5;entryY=0;entryDx=0;entryDy=0;" edge="1" parent="d2uhO5G5-GendlZ6O_62-2" source="d2uhO5G5-GendlZ6O_62-5" target="d2uhO5G5-GendlZ6O_62-6">
          <mxGeometry relative="1" as="geometry">
            <mxPoint x="170" y="100" as="targetPoint" />
          </mxGeometry>
        </mxCell>
        <mxCell id="d2uhO5G5-GendlZ6O_62-3" value="Admin officer" style="swimlane;html=1;startSize=20;horizontal=0;" vertex="1" parent="d2uhO5G5-GendlZ6O_62-1">
          <mxGeometry y="210" width="900" height="120" as="geometry" />
        </mxCell>
        <mxCell id="d2uhO5G5-GendlZ6O_62-9" value="Record mails in delivery book" style="whiteSpace=wrap;html=1;rounded=0;" vertex="1" parent="d2uhO5G5-GendlZ6O_62-3">
          <mxGeometry x="110" y="50" width="120" height="60" as="geometry" />
        </mxCell>
        <mxCell id="d2uhO5G5-GendlZ6O_62-10" value="" style="edgeStyle=orthogonalEdgeStyle;rounded=0;orthogonalLoop=1;jettySize=auto;html=1;" edge="1" parent="d2uhO5G5-GendlZ6O_62-1" source="d2uhO5G5-GendlZ6O_62-6" target="d2uhO5G5-GendlZ6O_62-9">
          <mxGeometry relative="1" as="geometry" />
        </mxCell>
        <mxCell id="d2uhO5G5-GendlZ6O_62-11" value="Driver" style="swimlane;html=1;startSize=20;horizontal=0;" vertex="1" parent="d2uhO5G5-GendlZ6O_62-1">
          <mxGeometry y="330" width="900" height="120" as="geometry" />
        </mxCell>
        <mxCell id="d2uhO5G5-GendlZ6O_62-30" value="End" style="rounded=1;whiteSpace=wrap;html=1;" vertex="1" parent="d2uhO5G5-GendlZ6O_62-11">
          <mxGeometry x="510" y="40" width="120" height="50" as="geometry" />
        </mxCell>
        <mxCell id="d2uhO5G5-GendlZ6O_62-24" value="Deliver letter and inform user" style="rounded=0;whiteSpace=wrap;html=1;" vertex="1" parent="d2uhO5G5-GendlZ6O_62-11">
          <mxGeometry x="310" y="40" width="120" height="60" as="geometry" />
        </mxCell>
        <mxCell id="d2uhO5G5-GendlZ6O_62-16" value="" style="edgeStyle=orthogonalEdgeStyle;rounded=0;orthogonalLoop=1;jettySize=auto;html=1;entryX=0.5;entryY=0;entryDx=0;entryDy=0;" edge="1" parent="1" source="d2uhO5G5-GendlZ6O_62-13" target="d2uhO5G5-GendlZ6O_62-24">
          <mxGeometry relative="1" as="geometry">
            <mxPoint x="430" y="380" as="targetPoint" />
          </mxGeometry>
        </mxCell>
        <mxCell id="d2uhO5G5-GendlZ6O_62-13" value="Assign a driver to deliver" style="whiteSpace=wrap;html=1;rounded=0;" vertex="1" parent="1">
          <mxGeometry x="370" y="290" width="120" height="60" as="geometry" />
        </mxCell>
        <mxCell id="d2uhO5G5-GendlZ6O_62-14" value="" style="edgeStyle=orthogonalEdgeStyle;rounded=0;orthogonalLoop=1;jettySize=auto;html=1;" edge="1" parent="1" source="d2uhO5G5-GendlZ6O_62-9" target="d2uhO5G5-GendlZ6O_62-13">
          <mxGeometry relative="1" as="geometry" />
        </mxCell>
        <mxCell id="d2uhO5G5-GendlZ6O_62-27" value="" style="edgeStyle=orthogonalEdgeStyle;rounded=0;orthogonalLoop=1;jettySize=auto;html=1;" edge="1" parent="1" source="d2uhO5G5-GendlZ6O_62-24">
          <mxGeometry relative="1" as="geometry">
            <mxPoint x="570" y="430" as="targetPoint" />
          </mxGeometry>
        </mxCell>
      </root>
    </mxGraphModel>
  </diagram>
</mxfile>
